<?xml version="1.0" encoding="utf-8"?>
<!-- Generator: Adobe Illustrator 24.1.3, SVG Export Plug-In . SVG Version: 6.00 Build 0)  -->
<svg version="1.1" id="Ebene_1" xmlns="http://www.w3.org/2000/svg" xmlns:xlink="http://www.w3.org/1999/xlink" x="0px" y="0px"
	 viewBox="0 0 18 18" style="enable-background:new 0 0 18 18;" xml:space="preserve">
<style type="text/css">
	.st0{fill:none;}
	.st1{fill:#DD1D1D;}
</style>
<path class="st0" d="M0,0h18v18H0V0z"/>
<path class="st1" d="M10,15.1c-0.6,0.5-1.4,0.5-2,0L7.9,15C4,11.5,1.4,9.1,1.5,6.2c0-1.3,0.7-2.5,1.8-3.2c2-1.3,4.4-0.7,5.7,0.8
	c1.3-1.5,3.8-2.2,5.7-0.8c1.1,0.7,1.7,1.9,1.8,3.2C16.6,9.1,14,11.5,10,15.1C10.1,15,10,15.1,10,15.1z"/>
</svg>
